<svg width="160" height="111" viewBox="0 0 160 111" fill="none" xmlns="http://www.w3.org/2000/svg">
<path d="M45.0416 0.0109136C46.5203 -0.167527 52.3313 1.8936 54.1041 2.43468C60.0074 4.23627 65.9779 5.83432 71.865 7.68191C72.968 8.02798 74.5586 8.47696 75.5843 8.96598C75.8076 10.0692 75.75 12.5103 75.749 13.7443L75.7479 20.6913L75.7448 48.3205L75.7531 60.6283C75.7582 62.5599 75.787 64.5049 75.7325 66.4364C75.7057 67.3554 75.2973 67.9502 74.5678 68.4832C73.898 68.6644 73.3075 68.5954 72.6902 68.3001C71.116 67.485 69.9431 66.5177 68.3165 65.7439C62.2164 62.8398 55.7232 61.3827 49.1252 60.1159C47.6412 59.8309 46.5199 59.9077 44.9997 59.3683C44.6257 58.4928 44.2874 57.8111 44.2498 56.853C44.1899 55.3294 44.2052 53.8017 44.2019 52.2774L44.199 44.5876L44.2382 22.8341C44.2414 18.1307 44.2156 13.4271 44.1609 8.72394C44.1464 6.29441 44.0897 3.70486 44.2399 1.27955C44.2766 0.686498 44.5979 0.361621 45.0416 0.0109136Z" fill="#F4F3F3"/>
<path d="M106.407 0.210736C107.078 0.147037 107.887 0.349971 107.976 1.06301C108.378 4.28698 108.165 8.33452 108.157 11.5574L108.147 28.9875L108.15 46.9883C108.155 50.2572 108.181 53.5285 108.144 56.7959C108.136 57.5021 107.906 59.4023 107.132 59.66C105.607 60.1681 103.761 60.3526 102.148 60.6386C98.1881 61.3408 94.2486 61.9531 90.3955 63.155C88.7514 63.6706 86.7657 64.7964 85.1906 65.4745C82.6421 66.5725 81.4013 68.2304 78.7417 69.031C77.3404 69.0495 76.9751 67.1282 76.9638 66.0508C76.934 63.2548 76.9782 60.4587 76.9782 57.6626V39.9399L76.9741 21.0279C76.972 18.9538 76.7601 10.1881 77.2807 8.89845C77.7447 8.66434 79.0802 8.30756 79.6491 8.12521C82.4888 7.23774 85.3418 6.39133 88.2051 5.58629L103.093 1.24238C104.205 0.918324 105.267 0.533658 106.407 0.210736Z" fill="#F4F3F3"/>
<path d="M35.139 13.7217C35.9029 13.959 38.3833 14.5085 38.7508 15.2402C39.1865 16.1075 38.9059 24.5843 38.902 26.1438L38.8851 52.9103L38.8897 62.8829C38.8916 63.6784 38.7939 68.4563 39.0855 68.832C39.7 68.9771 44.0501 68.4214 45.1153 68.3699C48.2952 68.2361 51.4774 68.1651 54.66 68.1569C59.8798 68.159 63.6893 68.0787 68.4602 70.3858C69.5857 70.9302 76.1323 74.3498 76.8021 74.1862C80.184 73.2127 83.2901 71.3254 86.6329 70.0782C90.1896 68.7517 92.7793 68.3164 96.5027 67.9079C101.338 67.3882 106.203 67.1618 111.066 67.2328C112.54 67.2513 113.979 67.3861 115.451 67.4139C115.394 63.1906 115.317 16.2756 115.495 15.9445C115.573 15.8005 115.693 15.7156 115.846 15.6633C116.143 15.562 116.503 15.5709 116.813 15.4915C117.315 15.3627 117.811 15.1231 118.313 15.0224C118.634 14.9581 118.737 14.9924 119.013 15.1521C119.26 15.5976 119.158 17.9611 119.155 18.6622L119.145 52.4692L119.152 62.9807C119.155 65.1664 119.382 68.2125 118.789 70.2253C118.089 72.0931 113.99 71.1165 112.467 71.0836C103.755 70.8932 94.8524 70.1173 86.423 72.8083C83.0463 73.8867 80.0667 75.4993 76.8176 76.5881C76.797 76.5819 76.7754 76.5757 76.7548 76.5695L76.6509 76.5366C75.3669 76.1383 74.1436 75.4304 72.9347 74.8438C71.2484 74.0277 69.4911 73.2724 67.6957 72.7311C62.9462 71.2976 51.8029 71.3449 46.8775 71.7977C44.4252 72.0231 42.0325 72.5551 39.5607 72.7188C38.4755 72.7908 36.7951 72.7692 35.9559 71.9737C35.4884 71.5312 35.3756 70.959 35.324 70.3467C35.1523 68.3071 35.2474 66.2037 35.2472 64.1569L35.2521 52.7425L35.139 13.7217Z" fill="#F4F3F3"/>
<path d="M39.7991 8.75977C40.568 9.14423 42.1991 9.49174 43.2857 9.96429C43.4297 12.859 43.3283 16.4415 43.3469 19.3935L43.5517 38.0779C43.7096 43.8394 43.7747 49.6031 43.7469 55.3668C43.7536 57.0731 43.9236 61.1895 43.6938 62.6765C49.8214 62.0087 59.5956 63.5512 65.2731 65.8666C68.1395 67.0367 73.9124 70.8442 77.0628 70.9749C78.9898 71.0552 84.8512 67.8178 87.1178 66.8412C89.0675 65.9984 91.0593 65.2554 93.0852 64.6163C94.185 64.2654 95.2242 64.075 96.3189 63.7776C100.654 62.5973 105.318 61.8296 109.799 61.4519C109.603 51.4895 109.764 41.017 109.763 31.0198L109.755 17.9098C109.753 15.5638 109.686 12.7926 109.792 10.4758C110.797 10.3273 112.333 9.80283 113.328 9.84677C113.505 9.85459 113.555 10.0546 113.625 10.2018C113.84 11.3326 113.658 14.985 113.65 16.2979C113.629 19.4022 113.631 22.5168 113.632 25.6231L113.631 49.8267C113.631 53.7937 113.664 57.8032 113.629 61.7709C113.622 62.6076 113.372 63.1736 112.987 63.8991C111.144 64.8602 108.13 64.4095 106.041 64.5638C103.127 64.8623 99.9528 65.0094 97.0761 65.5672C94.827 66.0035 92.0049 66.7136 89.7486 67.3372C85.5169 68.5052 80.8973 71.3969 76.4526 71.5893C73.7704 71.2435 70.8557 69.7833 68.371 68.8715C64.0292 67.2765 59.2901 66.0611 54.6975 65.5775C50.7635 65.1638 46.4691 65.348 42.514 65.2739C40.5502 65.2369 39.7128 64.6318 39.7602 62.6189C39.7261 58.5902 39.7397 54.5642 39.7414 50.5363L39.7435 27.4031L39.7313 15.5678C39.7204 13.9041 39.5941 10.2019 39.7991 8.75977Z" fill="#F4F3F3"/>
<g clip-path="url(#clip0_9_1741)">
<mask id="mask0_9_1741" style="mask-type:luminance" maskUnits="userSpaceOnUse" x="150" y="89" width="11" height="10">
<path d="M160.079 89.2607H150.502V98.8385H160.079V89.2607Z" fill="white"/>
</mask>
<g mask="url(#mask0_9_1741)">
<path d="M154.157 92.182H155.251C155.542 92.182 155.821 92.2976 156.027 92.5034C156.232 92.7092 156.348 92.9883 156.348 93.2794C156.348 93.5705 156.232 93.8496 156.027 94.0554C155.821 94.2612 155.542 94.3768 155.251 94.3768H154.157V92.182ZM153.427 91.4516V96.5678H154.157V95.1111H155.071L156.149 96.5717H157.054L155.885 94.9755C156.288 94.8277 156.625 94.5427 156.839 94.1707C157.052 93.7987 157.127 93.3634 157.052 92.9413C156.976 92.5192 156.754 92.1373 156.425 91.8626C156.095 91.588 155.68 91.4383 155.251 91.4397L153.427 91.4516ZM155.251 89.991C156.045 89.991 156.822 90.2267 157.483 90.6683C158.144 91.1099 158.659 91.7375 158.963 92.4718C159.268 93.2061 159.347 94.0142 159.192 94.7937C159.037 95.5732 158.654 96.2893 158.092 96.8513C157.53 97.4133 156.814 97.7961 156.035 97.9511C155.255 98.1062 154.447 98.0266 153.713 97.7225C152.978 97.4183 152.351 96.9032 151.909 96.2423C151.468 95.5815 151.232 94.8045 151.232 94.0097C151.231 93.4818 151.335 92.959 151.537 92.4712C151.739 91.9834 152.035 91.5402 152.408 91.1669C152.781 90.7936 153.224 90.4976 153.712 90.2959C154.2 90.0941 154.723 89.9905 155.251 89.991ZM155.251 89.2607C154.311 89.2607 153.393 89.5393 152.612 90.0611C151.831 90.5829 151.223 91.3246 150.863 92.1924C150.504 93.0601 150.41 94.015 150.593 94.9362C150.776 95.8574 151.228 96.7036 151.893 97.3677C152.557 98.0319 153.403 98.4842 154.324 98.6674C155.245 98.8506 156.2 98.7566 157.068 98.3972C157.936 98.0377 158.677 97.429 159.199 96.6481C159.721 95.8671 160 94.949 160 94.0097C159.998 92.7508 159.497 91.5442 158.606 90.654C157.716 89.7639 156.51 89.2629 155.251 89.2607Z" fill="white"/>
</g>
<mask id="mask1_9_1741" style="mask-type:luminance" maskUnits="userSpaceOnUse" x="-1" y="84" width="152" height="28">
<path d="M150.602 84.3364H-0.0559082V111.346H150.602V84.3364Z" fill="white"/>
</mask>
<g mask="url(#mask1_9_1741)">
<path d="M8.39858 105.275H5.5842V90.8928H0.265682V88.3665H13.7614V90.8928H8.39858V105.275Z" fill="white"/>
<path d="M18.0587 105.275H15.4437V92.8872H18.0587V105.275ZM16.7512 91.2916C16.2784 91.2916 15.8722 91.1439 15.5324 90.8484C15.2073 90.5382 15.0448 90.1541 15.0448 89.6961C15.0448 89.2381 15.2073 88.8614 15.5324 88.5659C15.8722 88.2557 16.2784 88.1005 16.7512 88.1005C17.2387 88.1005 17.645 88.2557 17.97 88.5659C18.295 88.8614 18.4576 89.2381 18.4576 89.6961C18.4576 90.1541 18.295 90.5382 17.97 90.8484C17.645 91.1439 17.2387 91.2916 16.7512 91.2916Z" fill="white"/>
<path d="M20.9191 105.275V92.8872H23.534V94.5714C24.0511 93.8918 24.5829 93.4043 25.1296 93.1088C25.691 92.8133 26.3115 92.6656 26.991 92.6656C27.8184 92.6656 28.5275 92.8429 29.1184 93.1974C29.7094 93.552 30.1083 94.0691 30.3151 94.7487C31.0538 93.36 32.2874 92.6656 34.0159 92.6656C35.3899 92.6656 36.4166 93.0571 37.0962 93.8401C37.7758 94.6231 38.1156 95.7311 38.1156 97.1642V105.275H35.5007V97.5631C35.5007 96.6766 35.316 96.0044 34.9467 95.5465C34.5773 95.0885 34.0528 94.8595 33.3733 94.8595C32.6493 94.8595 32.0879 95.0811 31.6891 95.5243C31.364 95.8789 31.135 96.3368 31.0021 96.8982C30.8839 97.4596 30.8248 98.1762 30.8248 99.0478V105.275H28.2099V97.5631C28.2099 96.6766 28.0178 96.0044 27.6337 95.5465C27.2644 95.0885 26.7325 94.8595 26.0381 94.8595C25.329 94.8595 24.7824 95.0959 24.3983 95.5686C24.1028 95.8936 23.8812 96.3295 23.7334 96.8761C23.6005 97.4227 23.534 98.1466 23.534 99.0478V105.275H20.9191Z" fill="white"/>
<path d="M46.5574 105.519C45.3459 105.519 44.2674 105.245 43.3219 104.699C42.3912 104.137 41.6673 103.376 41.1502 102.416C40.6331 101.441 40.3746 100.348 40.3746 99.1365C40.3746 98.0137 40.6036 96.9573 41.0616 95.9675C41.5343 94.9777 42.2287 94.1799 43.1446 93.5742C44.0754 92.9685 45.1908 92.6656 46.4909 92.6656C47.5841 92.6656 48.5961 92.902 49.5269 93.3747C50.4724 93.8327 51.2258 94.5345 51.7872 95.48C52.3634 96.4255 52.6515 97.5852 52.6515 98.9592V99.624H43.0338C43.1225 100.2 43.2628 100.658 43.4549 100.998C43.7504 101.692 44.1714 102.239 44.718 102.638C45.2794 103.037 45.9147 103.236 46.6238 103.236C47.3773 103.236 48.02 103.044 48.5518 102.66C49.0984 102.261 49.4899 101.766 49.7263 101.175H52.4299C52.031 102.461 51.3366 103.509 50.3468 104.322C49.357 105.12 48.0938 105.519 46.5574 105.519ZM49.9258 97.5631C49.8667 97.1051 49.7337 96.7136 49.5269 96.3886C49.2314 95.8715 48.8251 95.48 48.308 95.214C47.791 94.9333 47.2148 94.793 46.5795 94.793C45.9295 94.793 45.3533 94.9333 44.851 95.214C44.3487 95.48 43.9424 95.8715 43.6322 96.3886C43.4401 96.684 43.2924 97.0755 43.189 97.5631H49.9258Z" fill="white"/>
<path d="M67.9841 105.275H65.1698V90.8928H59.8513V88.3665H73.347V90.8928H67.9841V105.275Z" fill="white"/>
<path d="M75.0293 105.275V92.8872H77.6442V94.4384C78.1318 93.7884 78.6636 93.3304 79.2398 93.0645C79.8307 92.7986 80.5251 92.6656 81.3229 92.6656H81.611V95.214H80.9461C79.9563 95.214 79.1955 95.48 78.6636 96.0118C77.984 96.6471 77.6442 97.7403 77.6442 99.2916V105.275H75.0293Z" fill="white"/>
<path d="M87.0168 105.519C85.8054 105.519 84.8303 105.201 84.0916 104.566C83.3529 103.931 82.9836 103.044 82.9836 101.907C82.9836 100.754 83.4342 99.8456 84.3354 99.1808C84.9854 98.708 85.9457 98.3461 87.2162 98.0949L91.1387 97.3636C91.1239 96.5363 90.9023 95.901 90.4738 95.4578C90.0159 94.9998 89.3954 94.7708 88.6124 94.7708C87.9771 94.7708 87.4231 94.9555 86.9503 95.3248C86.4776 95.6794 86.1821 96.1669 86.0639 96.7874H83.449C83.6558 95.4578 84.2467 94.4384 85.2218 93.7293C86.2116 93.0202 87.3492 92.6656 88.6345 92.6656C89.3732 92.6656 90.0602 92.769 90.6954 92.9758C91.3455 93.1827 91.8995 93.4929 92.3575 93.9066C92.9632 94.468 93.3399 95.1254 93.4877 95.8789C93.6502 96.6323 93.7314 97.5261 93.7314 98.5603V105.275H91.1165V103.502C90.7915 104.063 90.3778 104.507 89.8755 104.832C89.1811 105.29 88.2282 105.519 87.0168 105.519ZM87.593 103.391C88.1987 103.391 88.7675 103.266 89.2993 103.015C89.9937 102.66 90.4738 102.195 90.7398 101.618C91.0205 101.042 91.1608 100.281 91.1608 99.3359L87.8589 99.9785C87.002 100.156 86.3963 100.407 86.0417 100.732C85.7463 101.027 85.5985 101.397 85.5985 101.84C85.5985 102.328 85.7758 102.712 86.1304 102.992C86.4997 103.258 86.9873 103.391 87.593 103.391Z" fill="white"/>
<path d="M102.042 105.275H99.9141L95.3491 92.8872H98.1856L100.956 101.153L103.814 92.8872H106.629L102.042 105.275Z" fill="white"/>
<path d="M114.053 105.519C112.841 105.519 111.763 105.245 110.817 104.699C109.887 104.137 109.163 103.376 108.646 102.416C108.128 101.441 107.87 100.348 107.87 99.1365C107.87 98.0137 108.099 96.9573 108.557 95.9675C109.03 94.9777 109.724 94.1799 110.64 93.5742C111.571 92.9685 112.686 92.6656 113.986 92.6656C115.079 92.6656 116.091 92.902 117.022 93.3747C117.968 93.8327 118.721 94.5345 119.283 95.48C119.859 96.4255 120.147 97.5852 120.147 98.9592V99.624H110.529C110.618 100.2 110.758 100.658 110.95 100.998C111.246 101.692 111.667 102.239 112.213 102.638C112.775 103.037 113.41 103.236 114.119 103.236C114.873 103.236 115.515 103.044 116.047 102.66C116.594 102.261 116.985 101.766 117.222 101.175H119.925C119.526 102.461 118.832 103.509 117.842 104.322C116.852 105.12 115.589 105.519 114.053 105.519ZM117.421 97.5631C117.362 97.1051 117.229 96.7136 117.022 96.3886C116.727 95.8715 116.32 95.48 115.803 95.214C115.286 94.9333 114.71 94.793 114.075 94.793C113.425 94.793 112.849 94.9333 112.346 95.214C111.844 95.48 111.438 95.8715 111.128 96.3886C110.935 96.684 110.788 97.0755 110.684 97.5631H117.421Z" fill="white"/>
<path d="M125.331 105.275C124.371 105.275 123.647 105.053 123.16 104.61C122.672 104.167 122.428 103.436 122.428 102.416V88.3665H125.043V101.729C125.043 102.217 125.125 102.564 125.287 102.771C125.464 102.978 125.775 103.081 126.218 103.081H126.949V105.275H125.331Z" fill="white"/>
<path d="M134.661 105.519C133.449 105.519 132.371 105.245 131.425 104.699C130.495 104.137 129.771 103.376 129.254 102.416C128.737 101.441 128.478 100.348 128.478 99.1365C128.478 98.0137 128.707 96.9573 129.165 95.9675C129.638 94.9777 130.332 94.1799 131.248 93.5742C132.179 92.9685 133.294 92.6656 134.594 92.6656C135.688 92.6656 136.7 92.902 137.63 93.3747C138.576 93.8327 139.329 94.5345 139.891 95.48C140.467 96.4255 140.755 97.5852 140.755 98.9592V99.624H131.137C131.226 100.2 131.366 100.658 131.558 100.998C131.854 101.692 132.275 102.239 132.822 102.638C133.383 103.037 134.018 103.236 134.727 103.236C135.481 103.236 136.123 103.044 136.655 102.66C137.202 102.261 137.593 101.766 137.83 101.175H140.533C140.135 102.461 139.44 103.509 138.45 104.322C137.46 105.12 136.197 105.519 134.661 105.519ZM138.029 97.5631C137.97 97.1051 137.837 96.7136 137.63 96.3886C137.335 95.8715 136.929 95.48 136.412 95.214C135.894 94.9333 135.318 94.793 134.683 94.793C134.033 94.793 133.457 94.9333 132.955 95.214C132.452 95.48 132.046 95.8715 131.736 96.3886C131.544 96.684 131.396 97.0755 131.292 97.5631H138.029Z" fill="white"/>
<path d="M143.103 105.275V92.8872H145.718V94.4384C146.205 93.7884 146.737 93.3304 147.313 93.0645C147.904 92.7986 148.598 92.6656 149.396 92.6656H149.684V95.214H149.02C148.03 95.214 147.269 95.48 146.737 96.0118C146.057 96.6471 145.718 97.7403 145.718 99.2916V105.275H143.103Z" fill="white"/>
</g>
</g>
<defs>
<clipPath id="clip0_9_1741">
<rect width="160" height="24.7864" fill="white" transform="translate(0 85.9009)"/>
</clipPath>
</defs>
</svg>
