<svg width="207" height="32" viewBox="0 0 207 32" fill="none" xmlns="http://www.w3.org/2000/svg">
<mask id="mask0_9_1762" style="mask-type:luminance" maskUnits="userSpaceOnUse" x="194" y="4" width="13" height="13">
<path d="M206.668 4.3381H194.303V16.7033H206.668V4.3381Z" fill="white"/>
</mask>
<g mask="url(#mask0_9_1762)">
<path d="M199.022 8.10948H200.434C200.81 8.10948 201.17 8.25875 201.436 8.52446C201.701 8.79017 201.851 9.15055 201.851 9.52632C201.851 9.90209 201.701 10.2625 201.436 10.5282C201.17 10.7939 200.81 10.9432 200.434 10.9432H199.022V8.10948ZM198.079 7.16663V13.7717H199.022V11.8912H200.202L201.593 13.7768H202.763L201.253 11.716C201.773 11.5252 202.209 11.1573 202.484 10.677C202.759 10.1967 202.857 9.63475 202.759 9.0898C202.661 8.54485 202.375 8.05179 201.949 7.69725C201.524 7.3427 200.987 7.14936 200.434 7.15118L198.079 7.16663ZM200.434 5.28095C201.46 5.28095 202.463 5.58523 203.316 6.15532C204.169 6.72541 204.834 7.5357 205.227 8.48372C205.62 9.43174 205.723 10.4749 205.522 11.4813C205.322 12.4877 204.828 13.4122 204.102 14.1378C203.377 14.8634 202.452 15.3575 201.446 15.5577C200.44 15.7579 199.396 15.6551 198.448 15.2624C197.5 14.8698 196.69 14.2048 196.12 13.3516C195.55 12.4984 195.246 11.4953 195.246 10.4692C195.245 9.78764 195.379 9.11269 195.639 8.48292C195.9 7.85315 196.282 7.28093 196.764 6.79903C197.246 6.31712 197.818 5.93499 198.448 5.6745C199.077 5.414 199.752 5.28027 200.434 5.28095ZM200.434 4.3381C199.221 4.3381 198.036 4.69768 197.028 5.37137C196.019 6.04506 195.233 7.0026 194.769 8.12291C194.305 9.24321 194.184 10.476 194.421 11.6653C194.657 12.8546 195.241 13.947 196.098 14.8045C196.956 15.6619 198.048 16.2458 199.238 16.4824C200.427 16.719 201.66 16.5976 202.78 16.1335C203.9 15.6695 204.858 14.8836 205.532 13.8754C206.205 12.8671 206.565 11.6818 206.565 10.4692C206.562 8.84394 205.915 7.28606 204.766 6.13686C203.617 4.98765 202.059 4.34083 200.434 4.3381Z" fill="#2D2D2D"/>
</g>
<mask id="mask1_9_1762" style="mask-type:luminance" maskUnits="userSpaceOnUse" x="-1" y="-3" width="196" height="36">
<path d="M194.432 -2.01965H-0.0723877V32.8501H194.432V-2.01965Z" fill="white"/>
</mask>
<g mask="url(#mask1_9_1762)">
<path d="M10.8429 24.6099H7.20945V6.04208H0.343074V2.78055H17.7665V6.04208H10.8429V24.6099Z" fill="#2D2D2D"/>
<path d="M23.3141 24.6099H19.9381V8.61697H23.3141V24.6099ZM21.6261 6.55706C21.0158 6.55706 20.4913 6.36632 20.0526 5.98486C19.633 5.58432 19.4232 5.08842 19.4232 4.49714C19.4232 3.90587 19.633 3.41951 20.0526 3.03804C20.4913 2.6375 21.0158 2.43723 21.6261 2.43723C22.2555 2.43723 22.78 2.6375 23.1997 3.03804C23.6193 3.41951 23.8291 3.90587 23.8291 4.49714C23.8291 5.08842 23.6193 5.58432 23.1997 5.98486C22.78 6.36632 22.2555 6.55706 21.6261 6.55706Z" fill="#2D2D2D"/>
<path d="M27.0069 24.6099V8.61697H30.3828V10.7913C31.0504 9.91395 31.737 9.28453 32.4427 8.90307C33.1675 8.5216 33.9686 8.33087 34.846 8.33087C35.9141 8.33087 36.8296 8.55975 37.5925 9.01751C38.3554 9.47526 38.8704 10.1428 39.1375 11.0202C40.0911 9.22731 41.6837 8.33087 43.9153 8.33087C45.6891 8.33087 47.0147 8.83631 47.8921 9.84719C48.7694 10.8581 49.2081 12.2886 49.2081 14.1387V24.6099H45.8322V14.6537C45.8322 13.5093 45.5937 12.6414 45.1169 12.0502C44.6401 11.4589 43.963 11.1632 43.0856 11.1632C42.151 11.1632 41.4262 11.4493 40.9113 12.0215C40.4917 12.4793 40.196 13.0706 40.0244 13.7954C39.8718 14.5201 39.7955 15.4452 39.7955 16.5705V24.6099H36.4195V14.6537C36.4195 13.5093 36.1716 12.6414 35.6757 12.0502C35.1988 11.4589 34.5122 11.1632 33.6157 11.1632C32.7002 11.1632 31.9945 11.4684 31.4986 12.0788C31.1171 12.4984 30.831 13.061 30.6403 13.7667C30.4687 14.4725 30.3828 15.407 30.3828 16.5705V24.6099H27.0069Z" fill="#2D2D2D"/>
<path d="M60.1072 24.9246C58.5432 24.9246 57.1509 24.5717 55.9302 23.866C54.7286 23.1413 53.794 22.159 53.1264 20.9192C52.4589 19.6604 52.1251 18.249 52.1251 16.685C52.1251 15.2354 52.4207 13.8717 53.012 12.5937C53.6223 11.3158 54.5188 10.2859 55.7013 9.50387C56.9029 8.72187 58.343 8.33087 60.0214 8.33087C61.4328 8.33087 62.7393 8.63604 63.941 9.24639C65.1616 9.83766 66.1344 10.7436 66.8592 11.9643C67.603 13.185 67.975 14.6823 67.975 16.4561V17.3144H55.5583C55.6727 18.0582 55.8539 18.6495 56.1019 19.0882C56.4833 19.9846 57.0269 20.6903 57.7326 21.2053C58.4574 21.7203 59.2775 21.9778 60.1931 21.9778C61.1658 21.9778 61.9955 21.7298 62.6821 21.2339C63.3878 20.7189 63.8933 20.08 64.1984 19.3171H67.6889C67.1739 20.9764 66.2774 22.3306 64.9995 23.3797C63.7216 24.4096 62.0909 24.9246 60.1072 24.9246ZM64.4559 14.6537C64.3796 14.0624 64.208 13.5569 63.941 13.1373C63.5595 12.4698 63.035 11.9643 62.3674 11.621C61.6999 11.2586 60.956 11.0774 60.1358 11.0774C59.2966 11.0774 58.5528 11.2586 57.9043 11.621C57.2558 11.9643 56.7313 12.4698 56.3307 13.1373C56.0828 13.5188 55.892 14.0242 55.7585 14.6537H64.4559Z" fill="#2D2D2D"/>
<path d="M87.7694 24.6099H84.136V6.04208H77.2696V2.78055H94.693V6.04208H87.7694V24.6099Z" fill="#2D2D2D"/>
<path d="M96.8648 24.6099V8.61697H100.241V10.6197C100.87 9.78044 101.557 9.18917 102.301 8.84585C103.064 8.50253 103.96 8.33087 104.99 8.33087H105.362V11.621H104.504C103.226 11.621 102.243 11.9643 101.557 12.651C100.679 13.4711 100.241 14.8825 100.241 16.8852V24.6099H96.8648Z" fill="#2D2D2D"/>
<path d="M112.342 24.9246C110.778 24.9246 109.519 24.5145 108.565 23.6944C107.612 22.8742 107.135 21.7298 107.135 20.2612C107.135 18.7735 107.716 17.6005 108.88 16.7422C109.719 16.1318 110.959 15.6645 112.599 15.3403L117.663 14.3962C117.644 13.3281 117.358 12.5079 116.805 11.9357C116.214 11.3444 115.413 11.0488 114.402 11.0488C113.581 11.0488 112.866 11.2872 112.256 11.7641C111.646 12.2218 111.264 12.8512 111.111 13.6523H107.736C108.003 11.9357 108.765 10.6197 110.024 9.70414C111.302 8.78863 112.771 8.33087 114.43 8.33087C115.384 8.33087 116.271 8.46438 117.091 8.73141C117.93 8.99843 118.645 9.39897 119.237 9.93302C120.019 10.6578 120.505 11.5066 120.696 12.4793C120.906 13.452 121.011 14.606 121.011 15.9411V24.6099H117.635V22.3211C117.215 23.0459 116.681 23.6181 116.032 24.0377C115.136 24.629 113.906 24.9246 112.342 24.9246ZM113.086 22.1781C113.868 22.1781 114.602 22.0159 115.289 21.6917C116.185 21.2339 116.805 20.6331 117.148 19.8893C117.511 19.1454 117.692 18.1631 117.692 16.9424L113.429 17.7721C112.323 18.001 111.541 18.3253 111.083 18.7449C110.701 19.1263 110.511 19.6032 110.511 20.1754C110.511 20.8048 110.74 21.3007 111.197 21.6631C111.674 22.0064 112.304 22.1781 113.086 22.1781Z" fill="#2D2D2D"/>
<path d="M131.739 24.6099H128.992L123.099 8.61697H126.761L130.337 19.2885L134.028 8.61697H137.661L131.739 24.6099Z" fill="#2D2D2D"/>
<path d="M147.246 24.9246C145.682 24.9246 144.289 24.5717 143.068 23.866C141.867 23.1413 140.932 22.159 140.265 20.9192C139.597 19.6604 139.263 18.249 139.263 16.685C139.263 15.2354 139.559 13.8717 140.15 12.5937C140.761 11.3158 141.657 10.2859 142.84 9.50387C144.041 8.72187 145.481 8.33087 147.16 8.33087C148.571 8.33087 149.878 8.63604 151.079 9.24639C152.3 9.83766 153.273 10.7436 153.997 11.9643C154.741 13.185 155.113 14.6823 155.113 16.4561V17.3144H142.697C142.811 18.0582 142.992 18.6495 143.24 19.0882C143.622 19.9846 144.165 20.6903 144.871 21.2053C145.596 21.7203 146.416 21.9778 147.331 21.9778C148.304 21.9778 149.134 21.7298 149.82 21.2339C150.526 20.7189 151.032 20.08 151.337 19.3171H154.827C154.312 20.9764 153.416 22.3306 152.138 23.3797C150.86 24.4096 149.229 24.9246 147.246 24.9246ZM151.594 14.6537C151.518 14.0624 151.346 13.5569 151.079 13.1373C150.698 12.4698 150.173 11.9643 149.506 11.621C148.838 11.2586 148.094 11.0774 147.274 11.0774C146.435 11.0774 145.691 11.2586 145.043 11.621C144.394 11.9643 143.87 12.4698 143.469 13.1373C143.221 13.5188 143.03 14.0242 142.897 14.6537H151.594Z" fill="#2D2D2D"/>
<path d="M161.806 24.6099C160.567 24.6099 159.632 24.3238 159.003 23.7516C158.373 23.1794 158.059 22.2353 158.059 20.9192V2.78055H161.435V20.0323C161.435 20.6617 161.539 21.11 161.749 21.377C161.978 21.644 162.379 21.7775 162.951 21.7775H163.895V24.6099H161.806Z" fill="#2D2D2D"/>
<path d="M173.851 24.9246C172.287 24.9246 170.895 24.5717 169.674 23.866C168.473 23.1413 167.538 22.159 166.87 20.9192C166.203 19.6604 165.869 18.249 165.869 16.685C165.869 15.2354 166.165 13.8717 166.756 12.5937C167.366 11.3158 168.263 10.2859 169.445 9.50387C170.647 8.72187 172.087 8.33087 173.765 8.33087C175.177 8.33087 176.483 8.63604 177.685 9.24639C178.906 9.83766 179.878 10.7436 180.603 11.9643C181.347 13.185 181.719 14.6823 181.719 16.4561V17.3144H169.302C169.417 18.0582 169.598 18.6495 169.846 19.0882C170.227 19.9846 170.771 20.6903 171.477 21.2053C172.201 21.7203 173.022 21.9778 173.937 21.9778C174.91 21.9778 175.74 21.7298 176.426 21.2339C177.132 20.7189 177.637 20.08 177.942 19.3171H181.433C180.918 20.9764 180.021 22.3306 178.744 23.3797C177.466 24.4096 175.835 24.9246 173.851 24.9246ZM178.2 14.6537C178.124 14.0624 177.952 13.5569 177.685 13.1373C177.304 12.4698 176.779 11.9643 176.111 11.621C175.444 11.2586 174.7 11.0774 173.88 11.0774C173.041 11.0774 172.297 11.2586 171.648 11.621C171 11.9643 170.475 12.4698 170.075 13.1373C169.827 13.5188 169.636 14.0242 169.503 14.6537H178.2Z" fill="#2D2D2D"/>
<path d="M184.75 24.6099V8.61697H188.126V10.6197C188.756 9.78044 189.442 9.18917 190.186 8.84585C190.949 8.50253 191.845 8.33087 192.875 8.33087H193.247V11.621H192.389C191.111 11.621 190.129 11.9643 189.442 12.651C188.565 13.4711 188.126 14.8825 188.126 16.8852V24.6099H184.75Z" fill="#2D2D2D"/>
</g>
</svg>
